<?xml version="1.0" encoding="UTF-8" standalone="no"?>
<!-- Created with Inkscape (http://www.inkscape.org/) -->

<svg
   xmlns:dc="http://purl.org/dc/elements/1.1/"
   xmlns:cc="http://creativecommons.org/ns#"
   xmlns:rdf="http://www.w3.org/1999/02/22-rdf-syntax-ns#"
   xmlns:svg="http://www.w3.org/2000/svg"
   xmlns="http://www.w3.org/2000/svg"
   xmlns:sodipodi="http://sodipodi.sourceforge.net/DTD/sodipodi-0.dtd"
   xmlns:inkscape="http://www.inkscape.org/namespaces/inkscape"
   width="297mm"
   height="210mm"
   viewBox="0 0 1052.3622 744.09448"
   id="svg2"
   version="1.1"
   inkscape:version="0.91 r13725"
   enable-background="new"
   sodipodi:docname="srpLogo.svg">
  <defs
     id="defs4" />
  <sodipodi:namedview
     id="base"
     pagecolor="#ffffff"
     bordercolor="#666666"
     borderopacity="1.0"
     inkscape:pageopacity="0.0"
     inkscape:pageshadow="2"
     inkscape:zoom="0.35"
     inkscape:cx="428.82499"
     inkscape:cy="480.70009"
     inkscape:document-units="px"
     inkscape:current-layer="layer1"
     showgrid="false"
     inkscape:snap-page="true"
     showborder="false"
     inkscape:window-width="1280"
     inkscape:window-height="657"
     inkscape:window-x="-8"
     inkscape:window-y="-8"
     inkscape:window-maximized="1" />
  <metadata
     id="metadata7">
    <rdf:RDF>
      <cc:Work
         rdf:about="">
        <dc:format>image/svg+xml</dc:format>
        <dc:type
           rdf:resource="http://purl.org/dc/dcmitype/StillImage" />
        <dc:title></dc:title>
      </cc:Work>
    </rdf:RDF>
  </metadata>
  <g
     inkscape:label="Layer 1"
     inkscape:groupmode="layer"
     id="layer1"
     transform="translate(0,-308.26772)"
     style="">
    <path
       style="font-style:normal;font-weight:normal;font-size:221.20062256px;line-height:125%;font-family:sans-serif;letter-spacing:0px;word-spacing:0px;fill:#000000;fill-opacity:1;stroke:none;stroke-width:1px;stroke-linecap:butt;stroke-linejoin:miter;stroke-opacity:1"
       d="M 210.875 -42.972656 C 161.76846 -42.972656 110.00781 -35.451873 110.00781 28.253906 C 110.00781 64.309608 144.5152 85.988779 166.41406 85.767578 L 178.13867 85.988281 C 217.73358 85.988281 214.85659 113.85938 176.14648 113.85938 L 175.92578 113.85938 L 144.95703 113.85938 L 94.302734 113.85938 L 79.703125 171.81445 C 97.399175 171.81445 141.63978 171.37109 161.99023 171.37109 C 208.22116 171.37109 259.98242 156.32984 259.98242 103.46289 C 259.98242 75.812813 242.72771 40.862286 191.85156 41.304688 L 178.13867 41.083984 C 149.60379 41.083984 150.7083 15.867188 178.80078 15.867188 L 270.37891 15.867188 L 285.41992 -42.308594 C 261.08785 -42.750995 239.18868 -42.972656 210.875 -42.972656 z M 325.56445 -42.529297 C 312.51362 7.6832444 303.00087 44.84384 270.48438 171.5918 C 288.62283 171.813 306.76244 171.81445 324.67969 171.81445 L 345.25 92.402344 L 367.37109 92.402344 L 386.83594 171.81445 C 403.86839 171.81445 420.90065 171.813 438.1543 171.5918 L 418.02539 89.527344 C 447.88747 81.12172 469.78711 55.463186 469.78711 24.9375 C 469.78711 -12.445405 437.04807 -42.529297 396.56836 -42.529297 C 372.89989 -42.529297 349.45362 -42.308096 325.78516 -42.529297 L 325.56445 -42.529297 z M 590.5957 -42.529297 C 566.92724 -42.529297 543.25977 -42.308594 519.8125 -42.308594 L 519.58984 -42.308594 C 506.53901 7.6827469 497.02821 44.84384 464.51172 171.5918 C 482.65017 171.813 500.56663 171.81445 518.70508 171.81445 L 539.27734 92.402344 L 590.5957 92.402344 C 630.85422 92.402344 663.5918 62.320405 663.5918 24.9375 C 663.5918 -12.224205 630.85422 -42.529297 590.5957 -42.529297 z M 369.14062 -0.05859375 L 399.00195 -0.05859375 C 413.37999 -0.05859375 425.10352 10.7802 425.10352 24.273438 C 425.10352 37.545475 413.37999 48.384766 399.00195 48.384766 L 356.53125 48.384766 L 369.14062 -0.05859375 z M 592.80859 -0.05859375 C 607.40783 -0.05859375 619.13086 10.7802 619.13086 24.273438 C 619.13086 37.545475 607.40783 48.384766 592.80859 48.384766 L 550.55859 48.384766 L 562.94531 0.16210938 C 572.89934 0.16210938 582.85457 -0.05859375 592.80859 -0.05859375 z M 125.66406 185.38867 C 116.01434 185.38867 105.84375 186.86621 105.84375 199.38477 C 105.84375 206.46992 112.62448 210.72901 116.92773 210.68555 L 119.23242 210.73047 C 127.01305 210.73047 126.44661 216.20703 118.83984 216.20703 L 118.79688 216.20703 L 112.71094 216.20703 L 102.75781 216.20703 L 99.888672 227.5957 C 103.36605 227.5957 112.05961 227.50781 116.05859 227.50781 C 125.14324 227.50781 135.31445 224.55273 135.31445 214.16406 C 135.31445 208.73066 131.9252 201.86228 121.92773 201.94922 L 119.23242 201.90625 C 113.62515 201.90625 113.84099 196.95117 119.36133 196.95117 L 137.35742 196.95117 L 137.51562 196.33789 L 150.38281 196.29883 L 142.29883 227.63867 C 145.95007 227.68214 149.51381 227.68164 153.07812 227.68164 L 161.16211 196.29883 L 173.07227 196.29883 C 173.98508 192.82145 175.02959 188.90952 175.85547 185.38867 C 163.46731 185.43214 151.20897 185.43114 138.77734 185.47461 L 138.77148 185.49805 C 134.58893 185.42913 130.618 185.38867 125.66406 185.38867 z M 370.23633 185.38867 C 357.84817 185.43214 345.59178 185.43114 333.16016 185.47461 L 333.15039 185.51172 L 324.40625 185.47461 L 320.32031 201.3418 L 307.80273 201.4707 L 311.93164 185.51953 L 301.19531 185.47461 C 298.63075 195.38514 296.7188 202.68799 290.24219 227.68164 L 300.97852 227.68164 L 305.06445 211.85938 L 317.58203 211.77344 L 313.49609 227.68164 L 324.18945 227.68164 L 332.33203 196.33594 L 344.76562 196.29883 L 336.67969 227.63867 C 340.33093 227.68214 343.89663 227.68164 347.46094 227.68164 L 355.54492 196.29883 L 367.45508 196.29883 C 368.36789 192.82145 369.41045 188.90952 370.23633 185.38867 z M 417.00977 185.45508 C 408.60933 185.65113 401.54406 192.37063 398.5 201.90625 C 394.93569 213.20773 398.28271 224.20443 408.71484 226.98633 C 419.10351 229.72476 428.40394 222.42307 432.01172 211.07812 C 435.66297 199.77665 432.27393 188.82146 421.8418 185.99609 L 421.79688 186.04102 C 420.16685 185.60634 418.5654 185.41877 417.00977 185.45508 z M 180.38672 185.47461 C 177.82215 195.34167 175.95413 202.64406 169.56445 227.55078 C 173.12877 227.59425 176.69205 227.5957 180.21289 227.5957 L 184.25586 211.99023 L 188.60156 211.99023 L 192.42773 227.5957 C 195.35399 227.5957 198.28884 227.58569 201.24414 227.55664 C 201.22042 227.60157 201.20149 227.63665 201.17773 227.68164 L 213.21875 227.85547 L 223.95508 207.73047 L 228.78125 227.85547 C 232.70434 227.85547 236.54658 227.77632 240.46484 227.77148 C 240.44505 227.84723 240.45152 227.82432 240.43164 227.90039 C 244.08289 227.90039 247.64663 227.85597 251.21094 227.8125 L 257.41406 203.86328 C 256.28394 214.50945 263.70109 227.55314 275.29102 227.63867 C 279.4204 227.68214 283.46241 227.63867 287.5918 227.63867 L 292.28516 209.38281 L 281.59375 209.33984 L 279.89844 215.90234 L 275.29102 215.90234 C 269.72721 215.85888 266.20671 209.46947 267.59766 204.29688 C 268.98861 199.08081 272.72588 197.51616 277.72461 197.29883 C 277.72461 197.21189 289.37426 197.25586 290.46094 197.25586 L 293.50391 185.60547 C 280.2134 185.4424 264.66601 183.90409 258.8418 198.3457 L 262.16406 185.51953 L 251.42773 185.47461 L 251.42773 185.64844 C 248.91415 195.40456 246.86337 203.28446 240.65039 227.06055 L 230.69336 185.47461 L 223.60742 185.47461 C 215.36892 200.953 209.45918 212.01175 202.11133 225.91992 L 198.55664 211.42578 C 204.42472 209.77403 208.72852 204.7309 208.72852 198.73242 C 208.72852 191.38646 202.29435 185.47461 194.33984 185.47461 C 189.68885 185.47461 185.08068 185.51808 180.42969 185.47461 L 180.38672 185.47461 z M 375.03125 185.47461 C 372.46668 195.34167 370.59576 202.68849 364.11914 227.63867 C 367.68345 227.68214 371.16225 227.68164 374.72656 227.68164 L 379.0293 211.42578 L 391.07031 211.42578 L 393.67773 201.03711 L 381.72461 201.03711 L 383.07227 195.82031 L 400.63281 195.77734 L 403.32812 185.47461 C 393.89574 185.47461 384.42017 185.51808 375.03125 185.47461 z M 441.3457 185.47461 C 438.78114 195.34167 436.91312 202.64406 430.52344 227.55078 C 434.08775 227.59425 437.65103 227.5957 441.17188 227.5957 L 445.21484 211.99023 L 449.5625 211.99023 L 453.38672 227.5957 C 456.73369 227.5957 460.08026 227.59425 463.4707 227.55078 L 459.51562 211.42578 C 465.3837 209.77403 469.6875 204.7309 469.6875 198.73242 C 469.6875 197.98152 469.6038 197.2513 469.47461 196.53516 L 476.87305 227.50781 L 483.91602 227.50781 L 493.56445 209.42578 L 497.91211 227.50781 L 504.95312 227.50781 L 527.33984 185.60547 L 515.29883 185.5625 L 503.3457 206.77344 L 496.56445 185.5625 L 483.52344 206.81836 L 478.39453 185.47461 L 466.83203 185.47461 L 469.14258 195.14844 C 467.44871 189.55812 461.90517 185.47461 455.29883 185.47461 C 450.64784 185.47461 446.04162 185.51808 441.39062 185.47461 L 441.3457 185.47461 z M 537.72266 185.47461 C 529.11615 201.64442 523.11707 212.85932 515.29297 227.68164 L 527.33398 227.85547 L 538.07031 207.73047 L 542.89453 227.85547 C 546.93698 227.85547 550.8931 227.76953 554.93555 227.76953 L 554.88281 227.55273 C 558.29017 227.59071 561.69857 227.5957 565.06445 227.5957 L 569.10742 211.99023 L 573.45312 211.99023 L 577.27734 227.5957 C 580.62432 227.5957 583.97284 227.59425 587.36328 227.55078 L 583.40625 211.42578 C 589.27432 209.77403 593.57812 204.7309 593.57812 198.73242 C 593.57812 191.38646 587.14591 185.47461 579.19141 185.47461 C 574.54041 185.47461 569.93224 185.51808 565.28125 185.47461 L 565.23828 185.47461 C 562.73132 195.12004 560.70647 203.02129 554.65625 226.60547 L 544.80664 185.47461 L 537.72266 185.47461 z M 601.19922 185.47461 C 598.67812 195.2982 596.76614 202.68803 590.41992 227.50781 C 593.28876 227.55128 596.15655 227.5957 599.02539 227.5957 L 598.98242 227.63867 C 611.84872 227.76907 625.49852 227.42068 629.71484 211.68555 C 632.84448 199.99286 624.84668 185.60597 612.32812 185.5625 C 608.67688 185.51903 604.9374 185.47461 601.19922 185.47461 z M 188.94922 193.82031 L 194.81836 193.82031 C 197.64373 193.82031 199.94727 195.95006 199.94727 198.60156 C 199.94727 201.2096 197.64373 203.33984 194.81836 203.33984 L 186.47266 203.33984 L 188.94922 193.82031 z M 449.91016 193.82031 L 455.77734 193.82031 C 458.60271 193.82031 460.90625 195.95006 460.90625 198.60156 C 460.90625 201.2096 458.60271 203.33984 455.77734 203.33984 L 447.43164 203.33984 L 449.91016 193.82031 z M 573.80078 193.82031 L 579.66992 193.82031 C 582.49529 193.82031 584.79883 195.95006 584.79883 198.60156 C 584.79883 201.2096 582.49529 203.33984 579.66992 203.33984 L 571.32422 203.33984 L 573.80078 193.82031 z M 416.82812 195.88281 C 417.4106 195.90548 418.01103 195.99953 418.625 196.16797 C 423.58026 197.55892 423.79624 203.90615 422.31836 208.51367 C 420.84047 213.1212 416.84344 218.64045 411.93164 217.29297 C 407.01984 215.94548 406.58362 210.94778 408.14844 204.60156 C 409.51765 199.04863 412.75078 195.72414 416.82812 195.88281 z M 608.89258 197.25586 L 612.37109 197.25586 C 617.89143 197.29933 621.41244 203.64381 620.02148 208.81641 C 618.5436 214.38021 614.41267 215.64204 609.93555 215.85938 L 604.06836 215.85938 L 608.89258 197.25586 z M 261.17383 233.59375 C 258.60926 243.50428 256.69682 250.80763 250.26367 275.75781 C 253.87145 275.80128 257.39272 275.80078 260.95703 275.80078 L 260.95703 275.75781 L 282.77734 275.84375 C 283.69016 272.40984 284.60281 268.97542 285.51562 265.49805 L 263.69531 265.32422 L 271.86719 233.63672 L 261.17383 233.59375 z M 362.99219 233.59375 C 360.42762 243.50428 358.51518 250.80763 352.08203 275.75781 C 355.68981 275.80128 359.21108 275.80078 362.77539 275.80078 L 362.77539 275.75781 L 381.45898 275.83203 C 381.4401 275.86781 381.42516 275.89582 381.40625 275.93164 L 393.44727 276.10547 L 404.18359 255.97852 L 409.00781 276.10547 C 413.05026 276.10547 417.00638 276.01758 421.04883 276.01758 L 410.92188 233.72461 L 403.83594 233.72461 C 397.40976 245.79804 392.30324 255.38136 386.93945 265.49414 L 365.51367 265.32422 L 373.68555 233.63672 L 362.99219 233.59375 z M 421.27344 233.59375 L 430.57617 258.7168 L 426.14258 275.80078 L 436.87891 275.80078 L 440.96484 260.06445 L 462.82812 233.59375 L 449.35352 233.59375 L 438.61719 247.28516 L 433.48828 233.59375 L 421.27344 233.59375 z M 236.2793 233.70312 C 229.16188 233.86924 223.00464 238.72092 219.4375 245.99805 C 218.89112 239.1173 212.69994 233.72461 205.10547 233.72461 C 200.45448 233.72461 195.84631 233.76808 191.19531 233.72461 L 191.15234 233.72461 C 188.58778 243.59167 186.71781 250.89406 180.32812 275.80078 C 183.89244 275.84425 187.45767 275.84375 190.97852 275.84375 L 195.01953 260.23828 L 199.36719 260.23828 L 203.19141 275.84375 C 206.53838 275.84375 209.88495 275.84425 213.27539 275.80078 L 209.32031 259.67383 C 212.30456 258.83382 214.88066 257.11344 216.69531 254.83984 C 215.28939 264.36023 219.0048 272.84034 227.98242 275.23438 C 238.37109 277.97281 247.67347 270.67112 251.28125 259.32617 C 254.9325 248.02469 251.54151 237.07146 241.10938 234.24609 L 241.06641 234.28906 C 239.43639 233.85439 237.83493 233.66682 236.2793 233.70312 z M 342.58789 233.72461 C 337.9369 233.72461 333.28721 233.76758 328.67969 233.76758 L 328.63477 233.76758 C 326.0702 243.59117 324.20218 250.89406 317.8125 275.80078 C 321.37681 275.84425 324.89663 275.84375 328.46094 275.84375 L 332.50391 260.23828 L 342.58789 260.23828 C 350.49892 260.23828 356.93164 254.32838 356.93164 246.98242 C 356.93164 239.67993 350.49892 233.72461 342.58789 233.72461 z M 467.10156 233.72461 L 467.10156 233.89844 C 464.537 243.85243 462.62555 251.19825 456.10547 276.14844 C 459.75672 276.14844 463.32045 276.10401 466.88477 276.06055 L 477.83984 233.76758 L 467.10156 233.72461 z M 542.4707 233.73047 C 530.59063 233.71336 518.81457 235.2664 514.92969 249.67578 C 514.88622 249.76272 514.58203 251.41597 514.58203 251.58984 C 513.14761 262.32625 520.62468 275.79978 532.4043 275.88672 C 536.53368 275.93019 540.57569 275.88672 544.70508 275.88672 L 549.39844 257.63086 L 538.70703 257.58789 L 537.01172 264.15039 L 532.4043 264.15039 C 526.84049 264.10692 523.31803 257.71752 524.70898 252.54492 C 526.09994 247.32886 529.83916 245.76421 534.83789 245.54688 C 534.83789 245.45994 546.48754 245.50391 547.57422 245.50391 L 550.61523 233.85352 C 547.9583 233.82092 545.21226 233.73442 542.4707 233.73047 z M 483.61914 233.76758 L 472.75195 275.75781 C 476.31627 275.80128 479.8815 275.80078 483.40234 275.80078 L 489.87891 250.80664 L 496.31055 275.75781 C 500.26606 275.80128 504.04789 275.80078 508.04688 275.80078 L 518.95703 233.81055 L 506.87305 233.76758 L 501.00586 256.71875 C 499.0933 249.02505 496.87582 239.72259 495.44141 233.76758 L 483.61914 233.76758 z M 294.62891 233.85352 C 292.10781 243.67711 290.19437 250.9805 283.80469 275.84375 C 293.32401 275.93068 302.93085 275.88672 312.53711 275.88672 L 311.9707 275.84375 L 314.62305 265.49805 L 297.10547 265.54297 L 298.62695 259.7168 L 310.625 259.7168 L 313.23242 249.37305 L 301.32227 249.37305 L 302.66992 244.15625 L 320.1875 244.11328 L 322.83789 233.85352 C 313.44897 233.85352 304.01783 233.89698 294.62891 233.85352 z M 199.71484 242.07031 L 205.58203 242.07031 C 208.4074 242.07031 210.71094 244.20006 210.71094 246.85156 C 210.71094 249.4596 208.4074 251.58984 205.58203 251.58984 L 197.23633 251.58984 L 199.71484 242.07031 z M 343.02344 242.07031 C 345.89227 242.07031 348.19531 244.20006 348.19531 246.85156 C 348.19531 249.4596 345.89227 251.58984 343.02344 251.58984 L 334.7207 251.58984 L 337.1543 242.11328 C 339.11032 242.11328 341.06741 242.07031 343.02344 242.07031 z M 236.09766 244.13281 C 236.68013 244.15548 237.2786 244.24758 237.89258 244.41602 C 242.84784 245.80697 243.06578 252.15419 241.58789 256.76172 C 240.11001 261.36924 236.11101 266.89045 231.19922 265.54297 C 226.28742 264.19548 225.85315 259.19582 227.41797 252.84961 C 228.78719 247.29667 232.02031 243.97414 236.09766 244.13281 z "
       transform="translate(0,308.26772)"
       id="text4136"
       inkscape:export-filename="C:\Users\JonLemur\Documents\GitHub\straightforwardrp.github.io\images\srpLogo.png"
       inkscape:export-xdpi="38.637371"
       inkscape:export-ydpi="38.637371" />
  </g>
</svg>
