<?xml version="1.0" standalone="no"?><!-- Generator: Gravit.io --><svg xmlns="http://www.w3.org/2000/svg" xmlns:xlink="http://www.w3.org/1999/xlink" style="isolation:isolate" viewBox="0 0 398.847 231.732" width="398.847" height="231.732"><defs><clipPath id="_clipPath_c5VpA29X6rqpTa8TiZaPsRVsoN9SuluM"><rect width="398.847" height="231.732"/></clipPath></defs><g clip-path="url(#_clipPath_c5VpA29X6rqpTa8TiZaPsRVsoN9SuluM)"><path d=" M 60.692 199.23 C 58.727 206.789 57.295 212.384 52.4 231.465 C 55.13 231.499 57.861 231.499 60.558 231.499 L 63.655 219.544 C 64.754 219.544 65.887 219.544 66.985 219.544 L 69.916 231.499 C 72.48 231.499 75.044 231.499 77.642 231.465 L 74.611 219.111 C 79.107 217.845 82.404 213.982 82.404 209.387 C 82.404 203.759 77.475 199.23 71.381 199.23 C 67.818 199.23 64.288 199.263 60.725 199.23 L 60.692 199.23 Z  M 65.354 212.917 L 67.252 205.624 C 68.75 205.624 70.249 205.624 71.747 205.624 C 73.912 205.624 75.677 207.256 75.677 209.287 C 75.677 211.285 73.912 212.917 71.747 212.917 C 69.616 212.917 67.485 212.917 65.354 212.917 Z  M 98.344 199.663 C 90.352 197.532 83.258 203.16 80.495 211.818 C 77.764 220.476 80.328 228.901 88.32 231.032 C 96.279 233.13 103.406 227.536 106.17 218.844 C 108.967 210.186 106.369 201.794 98.377 199.63 L 98.344 199.663 Z  M 95.913 207.422 C 99.709 208.488 99.876 213.35 98.743 216.88 C 97.611 220.409 94.548 224.639 90.784 223.606 C 87.021 222.574 86.688 218.744 87.887 213.882 C 89.086 209.021 92.15 206.39 95.913 207.422 Z  M 113.118 199.13 C 111.154 206.723 109.688 212.317 104.76 231.432 C 107.524 231.465 110.221 231.465 112.952 231.465 L 112.952 231.432 L 129.669 231.499 C 130.368 228.868 131.068 226.237 131.767 223.573 L 115.05 223.44 L 121.31 199.163 L 113.118 199.13 Z  M 138.116 199.33 C 136.185 206.856 134.72 212.451 129.824 231.499 C 137.117 231.565 144.477 231.532 151.836 231.532 L 151.403 231.499 L 153.435 223.573 L 140.014 223.606 L 141.18 219.144 L 150.371 219.144 L 152.369 211.218 L 143.245 211.218 L 144.277 207.222 L 157.697 207.189 L 159.729 199.33 C 152.536 199.33 145.309 199.363 138.116 199.33 Z  M 163.58 199.263 C 161.616 206.789 160.184 212.384 155.288 231.465 C 158.019 231.499 160.716 231.499 163.447 231.499 L 166.544 219.544 C 169.108 219.544 171.706 219.544 174.27 219.544 C 180.331 219.544 185.259 215.015 185.259 209.387 C 185.259 203.792 180.331 199.23 174.27 199.23 C 170.707 199.23 167.144 199.263 163.614 199.263 L 163.58 199.263 Z  M 168.242 212.917 L 170.107 205.657 C 171.606 205.657 173.104 205.624 174.603 205.624 C 176.801 205.624 178.566 207.256 178.566 209.287 C 178.566 211.285 176.801 212.917 174.603 212.917 C 172.472 212.917 170.374 212.917 168.242 212.917 Z  M 189.278 199.13 C 187.313 206.723 185.848 212.317 180.919 231.432 C 183.683 231.465 186.38 231.465 189.111 231.465 L 189.111 231.432 L 205.828 231.499 C 206.527 228.868 207.227 226.237 207.926 223.573 L 191.209 223.44 L 197.47 199.163 L 189.278 199.13 Z  M 211.978 231.698 L 220.203 216.28 L 223.899 231.698 C 226.996 231.698 230.027 231.632 233.124 231.632 L 225.365 199.23 L 219.937 199.23 C 213.343 211.618 208.747 220.21 202.753 231.565 L 211.978 231.698 Z  M 236.409 231.465 L 244.635 231.465 L 247.765 219.41 L 264.515 199.13 L 254.192 199.13 L 245.967 209.62 L 242.037 199.13 L 232.68 199.13 L 239.806 218.378 L 236.409 231.465 Z  M 267.202 199.363 C 265.237 206.989 263.772 212.617 258.777 231.732 C 261.574 231.732 264.305 231.698 267.035 231.665 L 275.427 199.263 L 267.202 199.23 L 267.202 199.363 Z  M 270.92 231.432 C 273.651 231.465 276.382 231.465 279.079 231.465 L 284.041 212.317 L 288.969 231.432 C 292 231.465 294.897 231.465 297.961 231.465 L 306.319 199.297 L 297.062 199.263 L 292.566 216.846 C 291.101 210.952 289.402 203.826 288.303 199.263 L 279.246 199.263 L 270.92 231.432 Z  M 329.053 217.546 L 320.861 217.512 L 319.562 222.541 C 318.396 222.541 317.198 222.541 316.032 222.541 C 311.769 222.507 309.072 217.612 310.138 213.649 C 311.203 209.653 314.067 208.454 317.897 208.288 C 317.897 208.221 326.821 208.255 327.654 208.255 L 329.985 199.33 C 319.129 199.197 306.308 197.865 302.645 211.451 C 302.612 211.518 302.379 212.784 302.379 212.917 C 301.28 221.142 307.007 231.465 316.032 231.532 C 319.196 231.565 322.293 231.532 325.456 231.532 L 329.053 217.546 Z  M 19.515 186.459 C 18.982 186.459 15.419 186.459 14.853 186.459 C 12.322 186.459 9.625 186.459 7.227 186.459 L 5.029 195.184 C 7.693 195.184 14.353 195.117 17.417 195.117 C 24.377 195.117 32.169 192.853 32.169 184.894 C 32.169 180.731 29.572 175.47 21.913 175.536 L 19.848 175.503 C 15.552 175.503 15.719 171.707 19.948 171.707 C 22.978 171.707 30.704 171.707 33.734 171.707 L 35.999 162.949 C 32.336 162.882 29.039 162.849 24.777 162.849 C 17.384 162.849 9.591 163.981 9.591 173.572 C 9.591 179 14.786 182.263 18.083 182.23 L 19.848 182.263 C 25.809 182.263 25.376 186.459 19.548 186.459 L 19.515 186.459 Z  M 32.258 171.241 L 43.247 171.207 L 37.053 195.217 C 39.851 195.251 42.581 195.251 45.312 195.251 L 51.506 171.207 L 60.631 171.207 C 61.33 168.543 62.129 165.546 62.762 162.849 C 53.271 162.882 43.88 162.882 34.356 162.915 L 32.258 171.241 Z  M 65.481 162.915 C 63.517 170.475 62.085 176.069 57.189 195.151 C 59.92 195.184 62.651 195.184 65.348 195.184 L 68.445 183.229 C 69.544 183.229 70.676 183.229 71.775 183.229 L 74.706 195.184 C 77.27 195.184 79.834 195.184 82.432 195.151 L 79.401 182.796 C 83.897 181.531 87.194 177.668 87.194 173.072 C 87.194 167.444 82.265 162.915 76.171 162.915 C 72.608 162.915 69.078 162.949 65.515 162.915 L 65.481 162.915 Z  M 70.143 176.602 L 72.042 169.309 C 73.54 169.309 75.039 169.309 76.537 169.309 C 78.702 169.309 80.467 170.941 80.467 172.972 C 80.467 174.97 78.702 176.602 76.537 176.602 C 74.406 176.602 72.275 176.602 70.143 176.602 Z  M 90.279 195.384 L 98.505 179.965 L 102.201 195.384 C 105.298 195.384 108.329 195.317 111.426 195.317 L 103.666 162.915 L 98.238 162.915 C 91.645 175.303 87.049 183.895 81.055 195.251 L 90.279 195.384 Z  M 118.508 163.049 C 116.543 170.674 115.078 176.302 110.082 195.417 C 112.88 195.417 115.61 195.384 118.341 195.35 L 126.733 162.949 L 118.508 162.915 L 118.508 163.049 Z  M 149.2 181.231 L 141.008 181.198 L 139.709 186.226 C 138.544 186.226 137.345 186.226 136.179 186.226 C 131.917 186.193 129.219 181.297 130.285 177.335 C 131.351 173.339 134.214 172.14 138.044 171.973 C 138.044 171.907 146.969 171.94 147.801 171.94 L 150.132 163.015 C 139.276 162.882 126.455 161.55 122.792 175.137 C 122.759 175.203 122.526 176.469 122.526 176.602 C 121.427 184.827 127.155 195.151 136.179 195.217 C 139.343 195.251 142.44 195.217 145.603 195.217 L 149.2 181.231 Z  M 155.416 162.915 C 153.451 170.508 151.986 176.103 147.024 195.251 C 149.788 195.251 152.519 195.251 155.25 195.251 L 158.38 183.129 L 167.97 183.062 L 164.84 195.251 C 167.604 195.251 170.335 195.251 173.032 195.251 L 181.424 162.949 L 173.199 162.915 L 170.068 175.07 L 160.478 175.17 L 163.641 162.949 L 155.416 162.915 Z  M 185.076 162.915 C 183.111 170.475 181.679 176.103 176.718 195.217 C 179.448 195.251 182.112 195.251 184.843 195.251 L 188.14 182.796 L 197.364 182.796 L 199.362 174.837 L 190.204 174.837 L 191.237 170.841 L 204.69 170.808 L 206.755 162.915 C 199.529 162.915 192.269 162.949 185.076 162.915 Z  M 220.197 163.348 C 212.205 161.217 205.112 166.845 202.348 175.503 C 199.617 184.161 202.182 192.586 210.174 194.718 C 218.133 196.816 225.259 191.221 228.023 182.53 C 230.82 173.871 228.223 165.48 220.231 163.315 L 220.197 163.348 Z  M 217.766 171.107 C 221.563 172.173 221.729 177.035 220.597 180.565 C 219.465 184.095 216.401 188.324 212.638 187.292 C 208.875 186.259 208.542 182.43 209.741 177.568 C 210.94 172.706 214.003 170.075 217.766 171.107 Z  M 234.739 162.915 C 232.774 170.475 231.342 176.069 226.447 195.151 C 229.178 195.184 231.908 195.184 234.606 195.184 L 237.703 183.229 C 238.802 183.229 239.934 183.229 241.033 183.229 L 243.963 195.184 C 246.527 195.184 249.092 195.184 251.689 195.151 L 248.659 182.796 C 253.154 181.531 256.451 177.668 256.451 173.072 C 256.451 167.444 251.523 162.915 245.428 162.915 C 241.865 162.915 238.335 162.949 234.772 162.915 L 234.739 162.915 Z  M 239.401 176.602 L 241.299 169.309 C 242.798 169.309 244.296 169.309 245.795 169.309 C 247.959 169.309 249.724 170.941 249.724 172.972 C 249.724 174.97 247.959 176.602 245.795 176.602 C 243.664 176.602 241.532 176.602 239.401 176.602 Z  M 290.807 162.982 L 281.649 179.233 L 276.454 162.982 L 266.464 179.266 L 262.534 162.915 C 259.47 162.915 256.74 162.915 253.676 162.915 L 261.368 195.117 L 266.763 195.117 L 274.156 181.264 L 277.486 195.117 L 282.881 195.117 L 300.031 163.015 L 290.807 162.982 Z  M 299.72 195.384 L 307.945 179.965 L 311.642 195.384 C 314.739 195.384 317.769 195.317 320.866 195.317 L 313.107 162.915 L 307.679 162.915 C 301.085 175.303 296.49 183.895 290.496 195.251 L 299.72 195.384 Z  M 327.715 162.915 C 325.75 170.475 324.318 176.069 319.423 195.151 C 322.154 195.184 324.884 195.184 327.582 195.184 L 330.679 183.229 C 331.778 183.229 332.91 183.229 334.009 183.229 L 336.939 195.184 C 339.504 195.184 342.068 195.184 344.665 195.151 L 341.635 182.796 C 346.13 181.531 349.427 177.668 349.427 173.072 C 349.427 167.444 344.499 162.915 338.405 162.915 C 334.841 162.915 331.312 162.949 327.748 162.915 L 327.715 162.915 Z  M 332.377 176.602 L 334.275 169.309 C 335.774 169.309 337.272 169.309 338.771 169.309 C 340.936 169.309 342.7 170.941 342.7 172.972 C 342.7 174.97 340.936 176.602 338.771 176.602 C 336.64 176.602 334.508 176.602 332.377 176.602 Z  M 360.572 171.94 C 361.438 171.94 362.337 171.94 363.236 171.94 C 367.465 171.973 370.163 176.835 369.097 180.798 L 369.097 180.798 C 367.965 185.06 364.801 186.026 361.371 186.193 C 359.873 186.193 358.374 186.193 356.876 186.193 L 360.572 171.94 Z  M 352.979 195.217 C 362.836 195.317 373.293 195.051 376.523 182.996 L 376.523 182.996 C 378.921 174.038 372.793 163.015 363.203 162.982 C 360.405 162.949 357.542 162.915 354.678 162.915 C 352.746 170.441 351.281 176.103 346.419 195.117 C 348.617 195.151 350.815 195.184 353.013 195.184 L 352.979 195.217 Z  M 69.532 113.33 C 66.975 113.33 49.871 113.33 47.154 113.33 C 35.006 113.33 22.059 113.33 10.55 113.33 L 0 155.209 C 12.788 155.209 44.756 154.889 59.462 154.889 C 92.87 154.889 130.273 144.02 130.273 105.817 C 130.273 85.836 117.805 60.581 81.041 60.901 L 71.131 60.741 C 50.511 60.741 51.31 42.519 71.61 42.519 C 86.156 42.519 123.24 42.519 137.786 42.519 L 148.655 0.48 C 131.072 0.16 115.248 0 94.788 0 C 59.302 0 21.899 5.435 21.899 51.47 C 21.899 77.525 46.834 93.189 62.659 93.029 L 71.131 93.189 C 99.743 93.189 97.665 113.33 69.692 113.33 L 69.532 113.33 Z  M 166.096 0.32 C 156.665 36.604 149.792 63.458 126.295 155.049 C 139.402 155.209 152.509 155.209 165.457 155.209 L 180.322 97.825 C 185.597 97.825 191.032 97.825 196.307 97.825 L 210.373 155.209 C 222.681 155.209 234.989 155.209 247.457 155.049 L 232.911 95.747 C 254.49 89.673 270.315 71.131 270.315 49.072 C 270.315 22.059 246.658 0.32 217.406 0.32 C 200.303 0.32 183.359 0.48 166.256 0.32 L 166.096 0.32 Z  M 188.474 66.016 L 197.586 31.01 C 204.778 31.01 211.971 31.01 219.164 31.01 C 229.554 31.01 238.026 38.842 238.026 48.593 C 238.026 58.183 229.554 66.016 219.164 66.016 C 208.934 66.016 198.704 66.016 188.474 66.016 Z  M 294.789 0.48 C 285.358 36.604 278.485 63.458 254.987 155.049 C 268.095 155.209 281.042 155.209 294.149 155.209 L 309.015 97.825 C 321.323 97.825 333.791 97.825 346.099 97.825 C 375.19 97.825 398.847 76.086 398.847 49.072 C 398.847 22.218 375.19 0.32 346.099 0.32 C 328.995 0.32 311.892 0.48 294.949 0.48 L 294.789 0.48 Z  M 317.167 66.016 L 326.118 31.17 C 333.311 31.17 340.504 31.01 347.697 31.01 C 358.247 31.01 366.719 38.842 366.719 48.593 C 366.719 58.183 358.247 66.016 347.697 66.016 C 337.467 66.016 327.397 66.016 317.167 66.016 Z " fill="rgb(0,0,0)"/></g></svg>